<svg xmlns="http://www.w3.org/2000/svg" xmlns:xlink="http://www.w3.org/1999/xlink" width="500" zoomAndPan="magnify" viewBox="0 0 375 374.999991" height="500" preserveAspectRatio="xMidYMid meet" version="1.0"><defs><g/></defs><g fill="#292828" fill-opacity="1"><g transform="translate(2.290761, 144.052191)"><g><path d="M 30.886719 3.042969 C 30.398438 -0.429688 28.265625 -2.070312 24.753906 -1.578125 L 15.941406 -0.335938 C 15.234375 -0.238281 14.832031 0.160156 14.703125 0.863281 L 13.035156 10.121094 L 8.070312 10.820312 C 7.0625 10.960938 6.503906 10.507812 6.367188 9.535156 L 6.113281 7.746094 C 5.984375 6.8125 6.390625 6.183594 7.398438 6.042969 L 10.273438 5.636719 C 10.683594 5.578125 10.84375 5.367188 10.785156 4.957031 L 10.242188 1.074219 C 10.1875 0.699219 9.96875 0.503906 9.558594 0.558594 L 5.640625 1.109375 C 2.128906 1.605469 0.53125 3.769531 1.019531 7.242188 L 1.605469 11.425781 C 2.097656 14.933594 4.230469 16.539062 7.738281 16.046875 L 16.363281 14.832031 C 17.070312 14.734375 17.433594 14.339844 17.609375 13.667969 L 19.269531 4.371094 L 24.421875 3.648438 C 25.394531 3.511719 25.996094 4 26.125 4.933594 L 26.378906 6.722656 C 26.519531 7.730469 26.066406 8.289062 25.09375 8.425781 L 22.183594 8.835938 C 21.808594 8.890625 21.617188 9.144531 21.667969 9.519531 L 22.214844 13.402344 C 22.273438 13.8125 22.523438 13.964844 22.894531 13.914062 L 26.855469 13.359375 C 30.363281 12.863281 31.96875 10.734375 31.472656 7.226562 Z M 30.886719 3.042969 "/></g></g></g><g fill="#292828" fill-opacity="1"><g transform="translate(6.40683, 169.731402)"><g><path d="M 32.507812 3.921875 C 32.394531 3.523438 31.972656 3.289062 31.574219 3.40625 L 9.542969 9.734375 C 8.5625 10.015625 7.949219 9.640625 7.675781 8.699219 L 7.136719 6.816406 C 6.863281 5.875 7.191406 5.230469 8.167969 4.949219 L 30.199219 -1.378906 C 30.601562 -1.492188 30.832031 -1.914062 30.71875 -2.3125 L 29.71875 -5.789062 C 29.605469 -6.1875 29.183594 -6.421875 28.785156 -6.304688 L 5.738281 0.3125 C 2.332031 1.292969 1.039062 3.625 2.019531 7.03125 L 3.183594 11.089844 C 4.164062 14.496094 6.496094 15.785156 9.902344 14.808594 L 32.949219 8.1875 C 33.347656 8.074219 33.578125 7.65625 33.464844 7.253906 Z M 32.507812 3.921875 "/></g></g></g><g fill="#292828" fill-opacity="1"><g transform="translate(14.066581, 194.58482)"><g><path d="M 1.320312 1.476562 C 0.976562 1.628906 0.859375 1.929688 1.015625 2.273438 L 2.613281 5.851562 C 2.78125 6.230469 3.0625 6.3125 3.410156 6.15625 L 12.085938 2.285156 L 13.929688 6.417969 C 15.371094 9.65625 17.898438 10.59375 21.097656 9.164062 L 29.5 5.414062 C 32.734375 3.972656 33.691406 1.480469 32.246094 -1.753906 L 28.558594 -10.019531 C 28.40625 -10.363281 28.105469 -10.476562 27.761719 -10.324219 Z M 16.628906 0.257812 L 25.855469 -3.859375 L 27.210938 -0.828125 C 27.625 0.101562 27.339844 0.761719 26.445312 1.164062 L 19.972656 4.050781 C 19.113281 4.433594 18.398438 4.21875 17.980469 3.289062 Z M 16.628906 0.257812 "/></g></g></g><g fill="#292828" fill-opacity="1"><g transform="translate(25.121026, 218.106472)"><g><path d="M 7.9375 3.308594 L 12.691406 10.917969 C 12.914062 11.269531 12.820312 11.550781 12.5 11.75 L 9.304688 13.746094 C 8.953125 13.96875 8.691406 13.90625 8.472656 13.554688 L 1.320312 2.109375 C 1.117188 1.789062 1.160156 1.5 1.511719 1.277344 L 26.0625 -14.070312 C 26.382812 -14.269531 26.695312 -14.195312 26.894531 -13.875 L 28.972656 -10.550781 C 29.195312 -10.199219 29.101562 -9.921875 28.78125 -9.71875 Z M 7.9375 3.308594 "/></g></g></g><g fill="#292828" fill-opacity="1"><g transform="translate(39.104656, 239.565293)"><g><path d="M 33.527344 -6.007812 C 33.816406 -6.25 33.894531 -6.511719 33.605469 -6.859375 L 24.691406 -17.492188 C 24.476562 -17.753906 24.15625 -17.78125 23.867188 -17.539062 L 1.671875 1.058594 C 1.382812 1.300781 1.355469 1.617188 1.574219 1.878906 L 10.484375 12.511719 C 10.777344 12.859375 11.046875 12.828125 11.335938 12.585938 L 14.226562 10.167969 C 14.542969 9.898438 14.589844 9.664062 14.300781 9.316406 L 8.246094 2.09375 L 14.082031 -2.800781 L 18.707031 2.71875 C 18.949219 3.007812 19.269531 3.039062 19.585938 2.769531 L 22.449219 0.375 C 22.765625 0.105469 22.792969 -0.210938 22.550781 -0.5 L 17.925781 -6.019531 L 23.707031 -10.863281 L 29.761719 -3.636719 C 30.050781 -3.292969 30.351562 -3.34375 30.640625 -3.585938 Z M 33.527344 -6.007812 "/></g></g></g><g fill="#292828" fill-opacity="1"><g transform="translate(56.223654, 259.474564)"><g><path d="M 33.09375 -11.214844 C 32.753906 -11.511719 32.40625 -11.515625 32.023438 -11.246094 L 16.558594 0.191406 L 25.703125 -16.730469 C 25.914062 -17.148438 25.863281 -17.492188 25.519531 -17.789062 L 21.761719 -21.050781 C 21.390625 -21.371094 21.019531 -21.34375 20.699219 -20.976562 L 1.917969 0.667969 C 1.597656 1.035156 1.625 1.410156 1.992188 1.730469 L 4.613281 4.003906 C 4.984375 4.324219 5.355469 4.296875 5.675781 3.929688 L 16.796875 -8.886719 L 16.996094 -8.714844 L 8.644531 6.605469 C 8.433594 7.019531 8.484375 7.363281 8.828125 7.660156 L 10.222656 8.871094 C 10.5625 9.167969 10.910156 9.171875 11.292969 8.902344 L 25.28125 -1.523438 L 25.480469 -1.347656 L 14.363281 11.464844 C 14.039062 11.835938 14.066406 12.207031 14.4375 12.527344 L 17.085938 14.828125 C 17.457031 15.148438 17.828125 15.121094 18.148438 14.75 L 36.929688 -6.890625 C 37.25 -7.261719 37.222656 -7.632812 36.855469 -7.953125 Z M 33.09375 -11.214844 "/></g></g></g><g fill="#292828" fill-opacity="1"><g transform="translate(81.444324, 280.243692)"><g><path d="M 29.980469 -16.167969 C 30.179688 -16.488281 30.171875 -16.757812 29.789062 -17 L 18.003906 -24.324219 C 17.714844 -24.5 17.40625 -24.429688 17.207031 -24.109375 L 1.917969 0.484375 C 1.71875 0.804688 1.792969 1.113281 2.082031 1.292969 L 13.863281 8.617188 C 14.25 8.855469 14.496094 8.746094 14.695312 8.425781 L 16.6875 5.222656 C 16.90625 4.871094 16.875 4.628906 16.492188 4.390625 L 8.488281 -0.585938 L 12.507812 -7.050781 L 18.625 -3.25 C 18.945312 -3.050781 19.253906 -3.125 19.472656 -3.476562 L 21.445312 -6.648438 C 21.664062 -7 21.589844 -7.3125 21.269531 -7.507812 L 15.15625 -11.3125 L 19.136719 -17.714844 L 27.140625 -12.738281 C 27.523438 -12.5 27.792969 -12.644531 27.992188 -12.964844 Z M 29.980469 -16.167969 "/></g></g></g><g fill="#292828" fill-opacity="1"><g transform="translate(103.784856, 293.56941)"><g><path d="M 24.441406 -22.21875 C 24.058594 -22.382812 23.796875 -22.253906 23.644531 -21.90625 L 17.253906 -7.335938 L 17.046875 -7.425781 L 18.234375 -24.402344 C 18.269531 -24.757812 18.121094 -24.988281 17.808594 -25.125 L 14.390625 -26.625 C 14.046875 -26.773438 13.75 -26.660156 13.597656 -26.3125 L 1.96875 0.203125 C 1.816406 0.550781 1.933594 0.847656 2.277344 1 L 5.871094 2.574219 C 6.25 2.742188 6.511719 2.609375 6.664062 2.265625 L 13.085938 -12.375 L 13.257812 -12.300781 L 12.074219 4.757812 C 12.042969 5.117188 12.1875 5.34375 12.5 5.480469 L 15.917969 6.980469 C 16.261719 7.132812 16.5625 7.015625 16.710938 6.671875 L 28.339844 -19.847656 C 28.492188 -20.191406 28.375 -20.492188 28.03125 -20.644531 Z M 24.441406 -22.21875 "/></g></g></g><g fill="#292828" fill-opacity="1"><g transform="translate(128.739259, 303.877924)"><g><path d="M 9.851562 -28.5625 C 9.488281 -28.664062 9.207031 -28.507812 9.105469 -28.144531 L 8.082031 -24.515625 C 7.980469 -24.152344 8.136719 -23.875 8.5 -23.769531 L 12.710938 -22.585938 L 6.042969 1.074219 C 5.929688 1.476562 6.097656 1.71875 6.460938 1.820312 L 10.234375 2.882812 C 10.632812 2.996094 10.867188 2.867188 10.976562 2.464844 L 17.644531 -21.195312 L 21.855469 -20.007812 C 22.253906 -19.894531 22.496094 -20.0625 22.597656 -20.425781 L 23.621094 -24.054688 C 23.722656 -24.417969 23.605469 -24.683594 23.203125 -24.796875 Z M 9.851562 -28.5625 "/></g></g></g><g fill="#292828" fill-opacity="1"><g transform="translate(152.374199, 310.090626)"><g><path d="M 2.621094 -5.117188 C 2.128906 -1.605469 3.734375 0.523438 7.242188 1.015625 L 11.425781 1.597656 C 14.933594 2.089844 17.0625 0.484375 17.554688 -3.027344 L 20.230469 -22.144531 C 20.722656 -25.652344 19.117188 -27.78125 15.605469 -28.273438 L 11.425781 -28.855469 C 7.914062 -29.347656 5.785156 -27.742188 5.292969 -24.234375 Z M 9 -3.652344 C 8.03125 -3.789062 7.574219 -4.347656 7.714844 -5.355469 L 10.128906 -22.605469 C 10.265625 -23.574219 10.863281 -24.023438 11.832031 -23.890625 L 14 -23.585938 C 14.96875 -23.449219 15.417969 -22.855469 15.28125 -21.882812 L 12.867188 -4.632812 C 12.726562 -3.625 12.136719 -3.210938 11.167969 -3.347656 Z M 9 -3.652344 "/></g></g></g><g fill="#292828" fill-opacity="1"><g transform="translate(178.194879, 313.197971)"><g><path d="M 7.285156 -30.167969 C 3.777344 -30.164062 1.855469 -28.277344 1.859375 -24.734375 L 1.871094 -15.835938 C 1.871094 -15.121094 2.210938 -14.667969 2.890625 -14.441406 L 11.828125 -11.511719 L 11.832031 -6.496094 C 11.832031 -5.480469 11.304688 -4.988281 10.324219 -4.988281 L 8.515625 -4.984375 C 7.574219 -4.984375 7.007812 -5.472656 7.007812 -6.492188 L 7.003906 -9.394531 C 7.003906 -9.808594 6.8125 -9.996094 6.398438 -9.996094 L 2.480469 -9.992188 C 2.101562 -9.992188 1.875 -9.804688 1.875 -9.390625 L 1.878906 -5.429688 C 1.882812 -1.886719 3.808594 -0.00390625 7.3125 -0.0078125 L 11.535156 -0.0117188 C 15.082031 -0.015625 16.964844 -1.902344 16.960938 -5.445312 L 16.953125 -14.15625 C 16.953125 -14.871094 16.613281 -15.285156 15.96875 -15.550781 L 6.996094 -18.480469 L 6.988281 -23.683594 C 6.988281 -24.664062 7.554688 -25.191406 8.496094 -25.195312 L 10.304688 -25.195312 C 11.324219 -25.195312 11.8125 -24.667969 11.816406 -23.6875 L 11.816406 -20.746094 C 11.820312 -20.371094 12.046875 -20.144531 12.421875 -20.144531 L 16.34375 -20.148438 C 16.757812 -20.148438 16.945312 -20.375 16.945312 -20.753906 L 16.941406 -24.75 C 16.9375 -28.292969 15.050781 -30.175781 11.507812 -30.171875 Z M 7.285156 -30.167969 "/></g></g></g><g fill="#292828" fill-opacity="1"><g transform="translate(203.786447, 312.527973)"><g/></g></g><g fill="#292828" fill-opacity="1"><g transform="translate(219.866264, 310.577851)"><g><path d="M 1.703125 -1.011719 C 1.792969 -0.605469 2.019531 -0.464844 2.425781 -0.558594 L 11.242188 -2.585938 C 14.695312 -3.378906 16.113281 -5.640625 15.316406 -9.09375 L 11 -27.871094 C 10.203125 -31.324219 7.9375 -32.773438 4.480469 -31.980469 L -4.335938 -29.953125 C -4.742188 -29.859375 -4.875 -29.597656 -4.789062 -29.230469 Z M 5.71875 -6.421875 L 1.1875 -26.117188 L 4.570312 -26.894531 C 5.523438 -27.113281 6.15625 -26.71875 6.386719 -25.726562 L 10.230469 -9.007812 C 10.457031 -8.015625 10.054688 -7.417969 9.097656 -7.199219 Z M 5.71875 -6.421875 "/></g></g></g><g fill="#292828" fill-opacity="1"><g transform="translate(245.092654, 304.260792)"><g><path d="M 5.230469 -33.660156 C 5.09375 -34.011719 4.871094 -34.167969 4.449219 -34.007812 L -8.507812 -29.042969 C -8.824219 -28.917969 -8.953125 -28.628906 -8.816406 -28.277344 L 1.542969 -1.238281 C 1.679688 -0.886719 1.972656 -0.753906 2.289062 -0.878906 L 15.242188 -5.84375 C 15.667969 -6.003906 15.726562 -6.269531 15.589844 -6.621094 L 14.242188 -10.140625 C 14.09375 -10.53125 13.886719 -10.652344 13.460938 -10.488281 L 4.660156 -7.117188 L 1.9375 -14.226562 L 8.660156 -16.804688 C 9.011719 -16.941406 9.140625 -17.230469 8.992188 -17.621094 L 7.660156 -21.105469 C 7.511719 -21.492188 7.21875 -21.621094 6.867188 -21.488281 L 0.140625 -18.910156 L -2.558594 -25.953125 L 6.242188 -29.324219 C 6.667969 -29.488281 6.714844 -29.785156 6.578125 -30.140625 Z M 5.230469 -33.660156 "/></g></g></g><g fill="#292828" fill-opacity="1"><g transform="translate(269.157233, 294.502391)"><g><path d="M 1.355469 -1.441406 C 1.539062 -1.113281 1.847656 -1.023438 2.175781 -1.207031 L 5.605469 -3.105469 C 5.96875 -3.308594 6.023438 -3.597656 5.84375 -3.925781 L 1.238281 -12.238281 L 5.195312 -14.429688 C 8.296875 -16.148438 9.011719 -18.742188 7.3125 -21.808594 L 2.855469 -29.855469 C 1.136719 -32.957031 -1.425781 -33.691406 -4.523438 -31.972656 L -12.441406 -27.589844 C -12.769531 -27.40625 -12.859375 -27.097656 -12.675781 -26.769531 Z M -1.175781 -16.589844 L -6.070312 -25.429688 L -3.167969 -27.035156 C -2.277344 -27.53125 -1.59375 -27.304688 -1.117188 -26.449219 L 2.316406 -20.25 C 2.773438 -19.421875 2.617188 -18.691406 1.726562 -18.199219 Z M -1.175781 -16.589844 "/></g></g></g><g fill="#292828" fill-opacity="1"><g transform="translate(291.659307, 281.463234)"><g><path d="M -1.761719 -5.46875 C 0.371094 -2.640625 3.011719 -2.269531 5.839844 -4.402344 L 9.210938 -6.945312 C 12.042969 -9.078125 12.414062 -11.71875 10.28125 -14.546875 L -1.339844 -29.960938 C -3.472656 -32.792969 -6.113281 -33.164062 -8.941406 -31.03125 L -12.316406 -28.488281 C -15.144531 -26.355469 -15.515625 -23.714844 -13.382812 -20.886719 Z M 3.785156 -8.945312 C 3.003906 -8.355469 2.285156 -8.429688 1.675781 -9.242188 L -8.8125 -23.152344 C -9.402344 -23.933594 -9.296875 -24.671875 -8.515625 -25.261719 L -6.769531 -26.578125 C -5.984375 -27.167969 -5.246094 -27.066406 -4.65625 -26.28125 L 5.828125 -12.375 C 6.441406 -11.558594 6.316406 -10.851562 5.53125 -10.261719 Z M 3.785156 -8.945312 "/></g></g></g><g fill="#292828" fill-opacity="1"><g transform="translate(312.140846, 265.405521)"><g><path d="M -5.25 -29.769531 C -7.761719 -32.269531 -10.429688 -32.265625 -12.929688 -29.757812 L -19.609375 -23.050781 C -19.875 -22.785156 -19.875 -22.464844 -19.609375 -22.199219 L 0.902344 -1.761719 C 1.171875 -1.496094 1.492188 -1.496094 1.757812 -1.761719 L 4.523438 -4.539062 C 4.789062 -4.808594 4.789062 -5.128906 4.523438 -5.394531 L -2.207031 -12.097656 L -0.371094 -13.941406 L 8.195312 -8.972656 C 8.488281 -8.785156 8.753906 -8.785156 9.023438 -9.054688 L 11.789062 -11.832031 C 12.082031 -12.125 12.082031 -12.445312 11.679688 -12.683594 L 2.847656 -17.8125 C 3.5625 -19.65625 3.054688 -21.492188 1.265625 -23.277344 Z M -5.734375 -15.613281 L -12.890625 -22.746094 L -10.253906 -25.386719 C -9.5625 -26.082031 -8.816406 -26.085938 -8.121094 -25.390625 L -3.101562 -20.390625 C -2.40625 -19.699219 -2.40625 -18.949219 -3.097656 -18.257812 Z M -5.734375 -15.613281 "/></g></g></g><g fill="#292828" fill-opacity="1"><g transform="translate(330.360365, 246.339148)"><g><path d="M -23.023438 -19.558594 C -23.253906 -19.257812 -23.207031 -18.941406 -22.90625 -18.714844 L -19.898438 -16.445312 C -19.597656 -16.214844 -19.28125 -16.261719 -19.054688 -16.5625 L -16.417969 -20.050781 L 3.199219 -5.238281 C 3.53125 -4.988281 3.816406 -5.054688 4.042969 -5.355469 L 6.40625 -8.484375 C 6.65625 -8.816406 6.621094 -9.078125 6.289062 -9.328125 L -13.328125 -24.144531 L -10.691406 -27.632812 C -10.441406 -27.964844 -10.507812 -28.25 -10.808594 -28.476562 L -13.820312 -30.75 C -14.121094 -30.976562 -14.414062 -30.964844 -14.664062 -30.632812 Z M -23.023438 -19.558594 "/></g></g></g><g fill="#292828" fill-opacity="1"><g transform="translate(344.363244, 226.83786)"><g><path d="M -24.585938 -17.644531 C -24.800781 -17.289062 -24.703125 -17.011719 -24.378906 -16.820312 L 0.453125 -1.925781 C 0.777344 -1.734375 1.066406 -1.777344 1.28125 -2.132812 L 3.296875 -5.496094 C 3.488281 -5.820312 3.414062 -6.128906 3.089844 -6.324219 L -21.742188 -21.214844 C -22.066406 -21.410156 -22.378906 -21.332031 -22.570312 -21.007812 Z M -24.585938 -17.644531 "/></g></g></g><g fill="#292828" fill-opacity="1"><g transform="translate(352.394426, 213.322654)"><g><path d="M -21.289062 -26.128906 C -21.476562 -25.71875 -21.378906 -25.382812 -21.015625 -25.09375 L -4.246094 -13.128906 L -24.289062 -17.84375 C -24.75 -17.929688 -25.0625 -17.78125 -25.25 -17.367188 L -26.726562 -14.105469 C -26.957031 -13.589844 -26.777344 -13.257812 -26.25 -13.144531 L 2.472656 -7.117188 C 2.929688 -7.035156 3.246094 -7.179688 3.429688 -7.59375 L 4.984375 -11.027344 C 5.171875 -11.441406 5.074219 -11.773438 4.707031 -12.0625 L -18.78125 -29.671875 C -19.214844 -29.992188 -19.582031 -29.910156 -19.816406 -29.394531 Z M -21.289062 -26.128906 "/></g></g></g><g fill="#292828" fill-opacity="1"><g transform="translate(363.267545, 187.854168)"><g><path d="M -4.699219 -3.3125 C -1.292969 -2.332031 1.039062 -3.625 2.019531 -7.03125 L 3.183594 -11.089844 C 4.164062 -14.496094 2.871094 -16.828125 -0.535156 -17.804688 L -19.089844 -23.132812 C -22.496094 -24.113281 -24.828125 -22.820312 -25.804688 -19.414062 L -26.972656 -15.355469 C -27.949219 -11.949219 -26.65625 -9.617188 -23.25 -8.640625 Z M -2.355469 -9.421875 C -2.625 -8.480469 -3.242188 -8.109375 -4.21875 -8.390625 L -20.960938 -13.199219 C -21.902344 -13.46875 -22.265625 -14.121094 -21.996094 -15.066406 L -21.390625 -17.167969 C -21.121094 -18.109375 -20.46875 -18.46875 -19.523438 -18.199219 L -2.78125 -13.390625 C -1.804688 -13.109375 -1.480469 -12.46875 -1.75 -11.523438 Z M -2.355469 -9.421875 "/></g></g></g><g fill="#292828" fill-opacity="1"><g transform="translate(369.963897, 162.72407)"><g><path d="M -28.851562 -11.441406 C -29.339844 -7.96875 -27.738281 -5.804688 -24.230469 -5.308594 L -15.417969 -4.070312 C -14.710938 -3.972656 -14.214844 -4.246094 -13.894531 -4.886719 L -9.738281 -13.324219 L -4.773438 -12.625 C -3.765625 -12.484375 -3.355469 -11.894531 -3.488281 -10.921875 L -3.742188 -9.128906 C -3.875 -8.195312 -4.4375 -7.707031 -5.445312 -7.847656 L -8.320312 -8.25 C -8.730469 -8.308594 -8.945312 -8.148438 -9 -7.738281 L -9.546875 -3.855469 C -9.601562 -3.480469 -9.445312 -3.230469 -9.035156 -3.171875 L -5.113281 -2.621094 C -1.605469 -2.128906 0.53125 -3.769531 1.019531 -7.242188 L 1.605469 -11.425781 C 2.097656 -14.933594 0.496094 -17.0625 -3.015625 -17.558594 L -11.640625 -18.769531 C -12.347656 -18.867188 -12.804688 -18.589844 -13.15625 -17.992188 L -17.316406 -9.515625 L -22.46875 -10.242188 C -23.441406 -10.375 -23.886719 -11.011719 -23.753906 -11.945312 L -23.5 -13.734375 C -23.359375 -14.742188 -22.769531 -15.15625 -21.796875 -15.019531 L -18.886719 -14.609375 C -18.511719 -14.558594 -18.257812 -14.75 -18.203125 -15.125 L -17.660156 -19.007812 C -17.601562 -19.417969 -17.800781 -19.636719 -18.171875 -19.6875 L -22.128906 -20.242188 C -25.640625 -20.738281 -27.769531 -19.132812 -28.261719 -15.625 Z M -28.851562 -11.441406 "/></g></g></g><g fill="#292828" fill-opacity="1"><g transform="translate(94.329198, 191.295647)"><g><path d="M 46.0625 1.4375 C 26.132812 1.4375 16.171875 -7.910156 16.171875 -26.609375 C 16.171875 -45.390625 20.222656 -62.078125 28.328125 -76.671875 C 32.328125 -83.828125 37.6875 -89.570312 44.40625 -93.90625 C 51.132812 -98.25 58.695312 -100.421875 67.09375 -100.421875 C 75.195312 -100.421875 83.347656 -99.273438 91.546875 -96.984375 L 95.5625 -95.984375 L 92.84375 -87.6875 C 83.300781 -89.6875 74.238281 -90.6875 65.65625 -90.6875 C 60.507812 -90.6875 55.789062 -89.328125 51.5 -86.609375 C 47.207031 -83.890625 43.628906 -80.3125 40.765625 -75.875 C 37.910156 -71.445312 35.476562 -66.375 33.46875 -60.65625 C 29.5625 -49.96875 27.609375 -38.566406 27.609375 -26.453125 C 27.609375 -14.347656 34.140625 -8.296875 47.203125 -8.296875 C 51.398438 -8.296875 56.3125 -8.867188 61.9375 -10.015625 L 64.515625 -10.4375 L 71.953125 -41.90625 L 56.9375 -41.90625 L 59.078125 -51.359375 L 85.109375 -51.359375 L 73.671875 -2.4375 C 65.273438 0.144531 56.070312 1.4375 46.0625 1.4375 Z M 46.0625 1.4375 "/></g></g></g><g fill="#292828" fill-opacity="1"><g transform="translate(168.994853, 191.295647)"><g><path d="M 65.796875 -98.984375 C 73.710938 -98.984375 79.648438 -97.457031 83.609375 -94.40625 C 87.566406 -91.351562 89.546875 -86.367188 89.546875 -79.453125 C 89.546875 -72.546875 87.851562 -66.707031 84.46875 -61.9375 C 81.082031 -57.164062 76.625 -53.585938 71.09375 -51.203125 C 79.101562 -48.054688 83.109375 -42.382812 83.109375 -34.1875 C 83.109375 -23.789062 79.816406 -15.492188 73.234375 -9.296875 C 66.660156 -3.097656 57.316406 0 45.203125 0 L 11.15625 0 L 33.90625 -98.984375 Z M 55.21875 -45.78125 L 32.609375 -45.78125 L 24.3125 -9.578125 L 47.484375 -9.578125 C 55.023438 -9.578125 60.941406 -11.769531 65.234375 -16.15625 C 69.523438 -20.550781 71.671875 -26.46875 71.671875 -33.90625 C 71.671875 -41.820312 66.1875 -45.78125 55.21875 -45.78125 Z M 63.9375 -89.40625 L 42.625 -89.40625 L 34.765625 -55.21875 L 56.796875 -55.21875 C 63.179688 -55.21875 68.375 -57.382812 72.375 -61.71875 C 76.382812 -66.0625 78.390625 -71.472656 78.390625 -77.953125 C 78.390625 -82.148438 77.269531 -85.109375 75.03125 -86.828125 C 72.789062 -88.546875 69.09375 -89.40625 63.9375 -89.40625 Z M 63.9375 -89.40625 "/></g></g></g></svg>